<svg xmlns="http://www.w3.org/2000/svg" width="28" height="28" fill="none"><g stroke="#2A59CA" stroke-linecap="round" stroke-width="2.34" clip-path="url(#a)"><path d="M17.5 17.5a3.5 3.5 0 1 0 0-7 3.5 3.5 0 0 0 0 7Z"/><path d="M7 21a3.5 3.5 0 0 1 3.5-3.5H14V21a3.5 3.5 0 1 1-7 0ZM7 14a3.5 3.5 0 0 1 3.5-3.5H14v7h-3.5A3.5 3.5 0 0 1 7 14ZM7 7a3.5 3.5 0 0 1 3.5-3.5H14v7h-3.5A3.5 3.5 0 0 1 7 7ZM14 3.5h3.5a3.5 3.5 0 0 1 0 7H14v-7Z" clip-rule="evenodd"/></g><defs><clipPath id="a"><path fill="#fff" d="M0 0h28v28H0z"/></clipPath></defs></svg>