<svg xmlns="http://www.w3.org/2000/svg" width="28" height="28" fill="none"><g clip-path="url(#a)"><path fill="#2A59CA" d="M18.946 25.667A1.167 1.167 0 0 1 17.78 24.5v-3.033a2.508 2.508 0 0 0-.63-1.937 1.167 1.167 0 0 1 .711-1.948c2.847-.339 5.472-1.249 5.472-6.184 0-.921-.271-1.823-.782-2.59a3.208 3.208 0 0 1-.478-2.403 4.327 4.327 0 0 0 0-1.645 8.925 8.925 0 0 0-2.438 1.272 1.167 1.167 0 0 1-.98.175 11.842 11.842 0 0 0-6.44 0 1.167 1.167 0 0 1-.98-.175A8.633 8.633 0 0 0 8.773 4.76a4.107 4.107 0 0 0 0 1.645 3.313 3.313 0 0 1-.502 2.427 4.748 4.748 0 0 0-.781 2.601c0 4.539 2.193 5.752 5.483 6.172a1.167 1.167 0 0 1 .957.77 1.167 1.167 0 0 1-.245 1.167 2.403 2.403 0 0 0-.642 1.82V24.5a1.166 1.166 0 1 1-2.333 0v-.665a7 7 0 0 1-6.149-2.438 4.549 4.549 0 0 0-1.353-1.027 1.168 1.168 0 1 1 .583-2.263c.898.326 1.7.872 2.334 1.586 1.166 1.167 2.333 2.194 4.55 1.774a4.539 4.539 0 0 1 .268-1.844C8.54 19.017 5.11 17.29 5.11 11.457a7 7 0 0 1 1.166-3.885.992.992 0 0 0 .152-.724 6.638 6.638 0 0 1 .385-3.745 1.167 1.167 0 0 1 .735-.665c.397-.116 1.82-.35 4.515 1.4a14.187 14.187 0 0 1 6.638 0c2.695-1.75 4.119-1.528 4.504-1.4a1.166 1.166 0 0 1 .735.665 6.662 6.662 0 0 1 .385 3.757.875.875 0 0 0 .128.665 7 7 0 0 1 1.167 3.897c0 5.915-3.407 7.63-5.834 8.166.214.626.301 1.288.257 1.949V24.5a1.166 1.166 0 0 1-1.097 1.167Z"/></g><defs><clipPath id="a"><path fill="#fff" d="M0 0h28v28H0z"/></clipPath></defs></svg>