<svg width="28" height="28" viewBox="0 0 28 28" fill="none" xmlns="http://www.w3.org/2000/svg">
<rect x="3" y="3" width="22" height="22" rx="4" stroke="#2A59CA" style="stroke:#2A59CA;stroke:color(display-p3 0.1647 0.3490 0.7922);stroke-opacity:1;" stroke-width="2"/>
<path d="M9.55108 11.2628H6.30538V21.7027H9.55108V11.2628Z" fill="#2A59CA" style="fill:#2A59CA;fill:color(display-p3 0.1647 0.3490 0.7922);fill-opacity:1;"/>
<path d="M9.81085 7.95425C9.81085 8.99331 8.96592 9.8355 7.9296 9.8355C6.8878 9.8355 6.04561 8.99331 6.04835 7.95425C6.04835 7.7072 6.09701 7.46257 6.19155 7.23432C6.28609 7.00608 6.42466 6.79869 6.59935 6.624C6.77404 6.44931 6.98143 6.31074 7.20967 6.2162C7.43792 6.12166 7.68255 6.073 7.9296 6.073C8.17665 6.073 8.42128 6.12166 8.64952 6.2162C8.87776 6.31074 9.08515 6.44931 9.25984 6.624C9.43453 6.79869 9.5731 7.00608 9.66765 7.23432C9.76219 7.46257 9.81085 7.7072 9.81085 7.95425Z" fill="#2A59CA" style="fill:#2A59CA;fill:color(display-p3 0.1647 0.3490 0.7922);fill-opacity:1;"/>
<path d="M16.7753 13.8578C15.0882 13.8578 14.8284 15.1757 14.8284 16.5375V21.7027H11.5855V11.2628H14.6999V12.6902H14.7437C15.1784 11.8699 16.2366 11.0031 17.8144 11.0031C21.0983 11.0031 21.7054 13.166 21.7054 15.9769V21.7027H18.4624V16.625C18.4624 15.4136 18.4378 13.8578 16.7753 13.8578Z" fill="#2A59CA" style="fill:#2A59CA;fill:color(display-p3 0.1647 0.3490 0.7922);fill-opacity:1;"/>
</svg>
