<svg xmlns="http://www.w3.org/2000/svg" width="28" height="28" fill="none"><g clip-path="url(#a)"><path fill="#2A59CA" d="M9.928 23.333h-.093a12.681 12.681 0 0 1-5.425-1.271 1.61 1.61 0 0 1-.91-1.68 1.645 1.645 0 0 1 1.353-1.377 7.737 7.737 0 0 0 2.964-1.038A11.072 11.072 0 0 1 3.722 7.385a1.645 1.645 0 0 1 1.166-1.342 1.575 1.575 0 0 1 1.669.479A8.271 8.271 0 0 0 12.25 9.73a5.25 5.25 0 0 1 1.645-3.617 5.215 5.215 0 0 1 7.431.222.817.817 0 0 0 .91.117A1.622 1.622 0 0 1 24.5 8.318a7.77 7.77 0 0 1-1.494 3.034A12.588 12.588 0 0 1 9.928 23.333Zm0-2.333h.093a10.254 10.254 0 0 0 10.605-10.022 1.54 1.54 0 0 1 .432-.991c.285-.36.527-.752.724-1.167a2.987 2.987 0 0 1-2.229-.992A2.858 2.858 0 0 0 17.5 7a2.917 2.917 0 0 0-2.088.805 2.951 2.951 0 0 0-.84 2.823l.303 1.33-1.365.094a9.684 9.684 0 0 1-7.63-2.8 8.306 8.306 0 0 0 4.352 7.536l1.108.63-.735 1.05a6.557 6.557 0 0 1-3.127 2.24c.797.2 1.617.298 2.439.292h.011Z"/></g><defs><clipPath id="a"><path fill="#fff" d="M0 0h28v28H0z"/></clipPath></defs></svg>