<svg width="28" height="29" viewBox="0 0 28 29" fill="none" xmlns="http://www.w3.org/2000/svg">
<path d="M21.5812 3.81104C21.2892 3.81104 21.0119 3.9386 20.8219 4.16026L14.7701 11.221L9.8873 4.24233C9.70019 3.9749 9.39434 3.81562 9.06795 3.81562H3.30554C2.90223 3.81562 2.66488 4.26857 2.89442 4.60019L10.7195 15.9052L2.94464 24.9724C2.66654 25.2967 2.89698 25.7979 3.32421 25.7979H4.85948C5.15133 25.7979 5.42862 25.6703 5.61861 25.4488L12.0966 17.8941L17.2697 25.3647C17.4565 25.6344 17.7637 25.7954 18.0918 25.7954H23.9495C24.3532 25.7954 24.5905 25.3415 24.36 25.01L16.1534 13.2028L23.4957 4.63642C23.7737 4.31208 23.5432 3.81104 23.116 3.81104H21.5812ZM13.7158 13.7958L13.7179 13.7988L20.266 23.2198C20.3351 23.3192 20.264 23.4554 20.1428 23.4554H19.0558C18.8917 23.4554 18.7381 23.3749 18.6447 23.24L6.9799 6.391C6.91102 6.29152 6.98223 6.15562 7.10323 6.15562H8.10969C8.27289 6.15562 8.42581 6.23526 8.51937 6.36898L13.7158 13.7958Z" fill="#2A59CA" style="fill:#2A59CA;fill:color(display-p3 0.1647 0.3490 0.7922);fill-opacity:1;"/>
</svg>
